<svg height="800" width="800" xmlns="http://www.w3.org/2000/svg" viewBox="0 0 512 512" fill="#fff"><path d="M156.092 156.092l76.636-76.634v409.27C232.727 501.58 243.147 512 256 512c12.853 0 23.273-10.42 23.273-23.273V79.458l76.636 76.634a23.188 23.188 0 0016.455 6.817 23.186 23.186 0 0016.455-6.817c9.089-9.089 9.089-23.824 0-32.912L272.46 6.82a23.46 23.46 0 00-1.713-1.547c-.261-.216-.538-.402-.807-.604-.34-.254-.67-.515-1.021-.751-.327-.219-.667-.408-1.001-.608-.316-.189-.625-.388-.953-.562-.343-.183-.694-.338-1.046-.504-.338-.16-.67-.329-1.016-.472-.341-.141-.689-.256-1.035-.379-.369-.133-.737-.276-1.116-.389-.346-.104-.694-.18-1.043-.268-.388-.098-.771-.206-1.167-.285-.399-.079-.802-.126-1.202-.183-.349-.051-.694-.116-1.049-.152a23.262 23.262 0 00-2.225-.112C256.045.003 256.025 0 256 0s-.045.003-.07.003c-.743.002-1.485.039-2.225.112-.354.036-.7.101-1.049.152-.402.057-.805.104-1.202.183-.396.078-.779.186-1.167.285-.349.088-.697.163-1.043.268-.379.115-.745.256-1.116.389-.346.124-.694.237-1.035.379-.348.143-.68.312-1.016.472-.352.164-.703.321-1.046.504-.327.174-.636.372-.953.562-.335.2-.675.389-1.001.608-.352.236-.681.496-1.021.751-.268.202-.546.388-.807.604a23.929 23.929 0 00-1.713 1.547L123.181 123.181c-9.089 9.089-9.089 23.824 0 32.912 9.087 9.087 23.824 9.087 32.911-.001z"/></svg>