<svg width="35" height="37" fill="none" xmlns="http://www.w3.org/2000/svg"><path d="M17.5 22.143L4.458 35.683c-.488.507-1.109.76-1.863.76s-1.375-.253-1.863-.76S0 34.532 0 33.749c0-.783.244-1.428.732-1.935l13.042-13.54L.732 4.736C.244 4.23 0 3.584 0 2.801 0 2.018.244 1.373.732.867 1.22.36 1.84.107 2.595.107S3.97.36 4.458.867L17.5 14.407 30.542.866c.488-.507 1.109-.76 1.863-.76s1.375.253 1.863.76c.488.506.732 1.151.732 1.934 0 .783-.244 1.428-.732 1.934l-13.042 13.54 13.042 13.54c.488.506.732 1.15.732 1.934 0 .783-.244 1.427-.732 1.934-.488.507-1.109.76-1.863.76s-1.375-.253-1.863-.76L17.5 22.143z" fill="#fff"/></svg>