<svg width="107" height="105" fill="none" xmlns="http://www.w3.org/2000/svg"><path d="M3.083 42.5C7.016 23.42 21.586 8.15 40.422 2.95c1.583-.435 2.37-.655 2.798-.19.429.47.11 1.24-.514 2.79L38.375 15M63.583 2.5c19.24 3.9 34.637 18.35 39.88 37.03.439 1.57.66 2.35.191 2.775-.473.425-1.25.11-2.813-.51L91.313 37.5m12.604 25c-3.933 19.08-18.503 34.35-37.339 39.55-1.583.435-2.37.655-2.798.19-.429-.47-.111-1.24.514-2.79L68.625 90m-25.208 12.5C24.177 98.6 8.78 84.15 3.537 65.47c-.439-1.57-.66-2.35-.192-2.775.474-.425 1.25-.11 2.814.51l9.529 4.295M53.5 47.995c-6.62 4.5-14.626 13.4-17.646 27.005m4.412-11.98C29.819 39.05 50.893 30.965 66.93 30.065c1.936-.11 2.904-.165 3.595.535.695.7.655 1.7.574 3.69-.66 16.58-7.325 39.39-30.834 28.73z" stroke="#D08801" stroke-width="5" stroke-linecap="round" stroke-linejoin="round"/></svg>