<svg xmlns="http://www.w3.org/2000/svg" viewBox="0 0 256 256" width="96" height="96"><path d="M88 26.667C54.22 26.667 26.667 54.22 26.667 88v80c0 33.775 27.553 61.333 61.333 61.333h80c33.776 0 61.333-27.557 61.333-61.333V88c0-33.78-27.558-61.333-61.333-61.333zm0 16h80A45.216 45.216 0 01213.333 88v80A45.22 45.22 0 01168 213.333H88A45.216 45.216 0 0142.667 168V88A45.211 45.211 0 0188 42.667zM181.333 64c-5.893 0-10.666 4.773-10.666 10.667 0 5.893 4.773 10.666 10.666 10.666 5.894 0 10.667-4.773 10.667-10.666A10.663 10.663 0 00181.333 64zM128 74.667c-29.36 0-53.333 23.974-53.333 53.333 0 29.359 23.974 53.333 53.333 53.333 29.359 0 53.333-23.974 53.333-53.333 0-29.36-23.974-53.333-53.333-53.333zm0 16A37.217 37.217 0 01165.333 128 37.217 37.217 0 01128 165.333 37.217 37.217 0 0190.667 128 37.217 37.217 0 01128 90.667z" fill="#fff" font-family="none" font-weight="none" font-size="none" text-anchor="none"/></svg>