<svg width="47" height="47" fill="none" xmlns="http://www.w3.org/2000/svg"><g clip-path="url(#clip0_2_92)"><path d="M2.938 0L0 2.937l6.463 9.05a2.938 2.938 0 002.394 1.232h.205a2.938 2.938 0 012.08.86L19 21.937l-7.688 7.796A8.821 8.821 0 000 38.187a8.812 8.812 0 1017.267-2.5L25.063 28l2.843 2.844-.896 2.685a2.938 2.938 0 00.711 3.005l9.606 9.605a2.928 2.928 0 004.153 0l4.66-4.659a2.93 2.93 0 000-4.153l-9.606-9.606a2.937 2.937 0 00-3.005-.71l-2.685.895-2.82-2.82 7.872-7.764A8.828 8.828 0 0047 8.812c0-.793-.1-1.553-.3-2.282l-6.286 6.29-5.164-1.07-1.07-5.161 6.29-6.29a8.812 8.812 0 00-10.795 10.81l-7.755 7.867-7.84-7.834a2.938 2.938 0 01-.861-2.077v-.208a2.937 2.937 0 00-1.231-2.392L2.938 0zm28.335 31.273a1.47 1.47 0 012.08 0l8.56 8.562a1.469 1.469 0 01-2.078 2.077l-8.562-8.56a1.467 1.467 0 010-2.08zm-22.46 1.04l1.383.71 1.554.077.843 1.307 1.307.843.077 1.554.71 1.383-.71 1.384-.077 1.554-1.307.843-.843 1.307-1.554.077-1.383.71-1.384-.71-1.554-.077-.843-1.307-1.307-.843-.077-1.554-.71-1.384.71-1.383.077-1.554 1.307-.843.843-1.307 1.554-.077 1.383-.71z" fill="#F9A200"/></g><defs><clipPath id="clip0_2_92"><path fill="#fff" d="M0 0h47v47H0z"/></clipPath></defs></svg>