<svg width="40" height="41" fill="none" xmlns="http://www.w3.org/2000/svg"><path d="M30.086 24.869c.957-2.05 1.326-4.381.97-6.637-.305-1.94-.944-3.53-1.952-4.862-.845-1.115-1.948-2.035-3.371-2.811-1.685-.92-3.647-1.37-5.675-1.306-2.04.066-4.064.653-5.852 1.7-2.087 1.22-3.587 2.838-4.458 4.807-.082.185-.158.373-.229.563a.89.89 0 00-.145.417c-.456 1.403-.633 2.961-.54 4.732a9.765 9.765 0 00.802 3.377l.005.012c.325.752.74 1.47 1.237 2.143a11.066 11.066 0 002.091 2.142c.808.63 1.69 1.136 2.622 1.503a11.09 11.09 0 004.071.76c.625 0 1.256-.05 1.887-.151 2.042-.326 3.931-1.159 5.464-2.408a11.272 11.272 0 003.016-3.86.87.87 0 00.057-.121zm-.78-6.362c.016.103.03.207.043.31-2.28.992-4.752 2.152-7.198 3.312l6.936-4.694c.087.342.16.699.219 1.072zm-.53 4.92c-.052.135-.106.269-.163.402-1.21.399-3.281 1.178-5.41 2.036l.257-.188c2.136-1.558 4.33-3.157 5.876-4.48a9.982 9.982 0 01-.56 2.23zm-.371-7.842l-9.408 4.165 8.371-5.706a7.255 7.255 0 011.037 1.54zM12.666 26.409a9.43 9.43 0 01-1.014-1.468l9.208-4.077-8.194 5.545zm-1.638-9.024c2.272-1.35 4.938-2.705 7.287-3.83-.519.354-1.04.695-1.53 1.017-.486.319-.945.62-1.366.909-1.17.804-2.305 1.6-3.339 2.514-.554.49-1.036.978-1.45 1.47a9.862 9.862 0 01.398-2.08zm-.306 4.989c1.265-.684 2.498-1.37 3.691-2.034 1.015-.564 2.015-1.121 3.019-1.667l-6.535 4.454c-.07-.25-.13-.5-.175-.753zM25.8 12.672c-4.07 1.64-7.518 3.495-11.05 5.453a58.367 58.367 0 011.673-1.184c.404-.278.856-.574 1.334-.887 1.064-.697 2.27-1.488 3.336-2.332 1.002-.793 1.754-1.536 2.28-2.253a8.707 8.707 0 011.51.646c.327.177.632.363.917.557zm-10.699-.19a10.675 10.675 0 014.331-1.412c-1.983.918-4.414 2.092-6.728 3.337l.056-.063c.633-.697 1.42-1.323 2.341-1.862zm-.945 15.341c2.376-1.061 4.911-2.266 7.376-3.437.655-.312 1.315-.626 1.976-.939l-1.092.798c-2.456 1.79-4.779 3.484-6.157 4.763L16.241 29a8.81 8.81 0 01-2.085-1.178zm4.808 1.785a97.619 97.619 0 014.48-1.93 44.37 44.37 0 00-2.133 1.82c-.776.128-1.567.166-2.347.11zM20 7.425c.49 0 .886-.397.886-.886V.886a.886.886 0 10-1.772 0V6.54c0 .49.397.886.886.886zm-6.028.565a.886.886 0 001.637-.678L14.573 4.81a.886.886 0 10-1.638.678l1.037 2.502zm-4.195 3.308a.883.883 0 001.253 0 .886.886 0 000-1.253L7.032 6.048A.886.886 0 005.78 7.3l3.998 3.997zm-5.722 3.373l3.111 1.289a.886.886 0 10.678-1.637l-3.11-1.29a.886.886 0 00-.679 1.638zm3.37 5.709a.886.886 0 00-.886-.887H.886a.886.886 0 100 1.773H6.54c.49 0 .886-.397.886-.886zM24.87 8.47a.883.883 0 001.158-.48l1.037-2.502a.886.886 0 00-1.638-.678l-1.036 2.502a.886.886 0 00.48 1.157zm4.727 3.087a.883.883 0 00.627-.26l3.997-3.996a.886.886 0 10-1.253-1.253l-3.998 3.997a.886.886 0 00.627 1.512zm2.079 3.923a.886.886 0 001.158.48l3.11-1.289a.886.886 0 10-.677-1.637l-3.112 1.288a.886.886 0 00-.48 1.158zm7.438 4.013H33.46a.886.886 0 100 1.773h5.653a.886.886 0 000-1.773zM20 33.334a.886.886 0 00-.886.886v5.653a.886.886 0 001.772 0V34.22a.886.886 0 00-.886-.886zm-4.87-1.044a.886.886 0 00-1.158.48l-1.037 2.501a.886.886 0 001.638.678l1.036-2.502a.886.886 0 00-.48-1.157zm-5.353-2.829l-3.998 3.997a.886.886 0 101.253 1.253l3.998-3.997a.886.886 0 10-1.253-1.253zm-1.453-4.182a.886.886 0 00-1.158-.48l-3.11 1.289a.886.886 0 10.677 1.637l3.112-1.289a.886.886 0 00.48-1.157zm17.704 7.491a.886.886 0 10-1.637.677l1.036 2.502a.886.886 0 101.637-.678l-1.036-2.502zm4.196-3.309a.886.886 0 10-1.254 1.253l3.998 3.997a.883.883 0 001.253 0 .886.886 0 000-1.253l-3.997-3.997zm5.721-3.373l-3.111-1.289a.886.886 0 00-.679 1.637l3.112 1.29a.883.883 0 001.157-.48.886.886 0 00-.48-1.158z" fill="#F9B800"/></svg>