<svg width="35" height="37" viewBox="0 0 35 37" fill="none" xmlns="http://www.w3.org/2000/svg">
<path d="M17.5 22.1433L4.45817 35.6829C3.97021 36.1895 3.34918 36.4428 2.59506 36.4428C1.84094 36.4428 1.2199 36.1895 0.731938 35.6829C0.243979 35.1764 0 34.5316 0 33.7487C0 32.9658 0.243979 32.3211 0.731938 31.8145L13.7738 18.2749L0.731938 4.73525C0.243979 4.22866 0 3.58392 0 2.80101C0 2.01811 0.243979 1.37337 0.731938 0.866782C1.2199 0.360198 1.84094 0.106907 2.59506 0.106907C3.34918 0.106907 3.97021 0.360198 4.45817 0.866782L17.5 14.4064L30.5418 0.866782C31.0298 0.360198 31.6508 0.106907 32.4049 0.106907C33.1591 0.106907 33.7801 0.360198 34.2681 0.866782C34.756 1.37337 35 2.01811 35 2.80101C35 3.58392 34.756 4.22866 34.2681 4.73525L21.2262 18.2749L34.2681 31.8145C34.756 32.3211 35 32.9658 35 33.7487C35 34.5316 34.756 35.1764 34.2681 35.6829C33.7801 36.1895 33.1591 36.4428 32.4049 36.4428C31.6508 36.4428 31.0298 36.1895 30.5418 35.6829L17.5 22.1433Z" fill="white"/>
</svg>
