<svg width="107" height="105" viewBox="0 0 107 105" fill="none" xmlns="http://www.w3.org/2000/svg">
<path d="M3.08331 42.5C7.01581 23.42 21.5862 8.15 40.4219 2.95C42.005 2.515 42.7915 2.295 43.22 2.76C43.6486 3.23 43.3309 4 42.7058 5.55L38.375 15M63.5833 2.5C82.8223 6.4 98.2196 20.85 103.463 39.53C103.902 41.1 104.123 41.88 103.654 42.305C103.181 42.73 102.404 42.415 100.841 41.795L91.3125 37.5M103.917 62.5C99.9842 81.58 85.4137 96.85 66.5781 102.05C64.995 102.485 64.2085 102.705 63.7799 102.24C63.3514 101.77 63.669 101 64.2942 99.45L68.625 90M43.4166 102.5C24.1776 98.6 8.7804 84.15 3.53706 65.47C3.09844 63.9 2.8766 63.12 3.34548 62.695C3.8194 62.27 4.59581 62.585 6.15873 63.205L15.6875 67.5M53.5 47.995C46.8803 52.495 38.8741 61.395 35.8541 75M40.2656 63.02C29.8193 39.05 50.8934 30.965 66.931 30.065C68.867 29.955 69.835 29.9 70.5257 30.6C71.2214 31.3 71.1811 32.3 71.1004 34.29C70.44 50.87 63.7749 73.68 40.2656 63.02Z" stroke="#D08801" stroke-width="5" stroke-linecap="round" stroke-linejoin="round"/>
</svg>
