<svg width="47" height="47" viewBox="0 0 47 47" fill="none" xmlns="http://www.w3.org/2000/svg">
<g clip-path="url(#clip0_2_92)">
<path d="M2.9375 -6.27034e-05L0 2.93744L6.4625 11.9879C6.73456 12.369 7.09379 12.6796 7.51024 12.8937C7.9267 13.1078 8.3883 13.2192 8.85656 13.2187H9.06219C9.44841 13.2184 9.8309 13.2942 10.1878 13.4419C10.5446 13.5896 10.8689 13.8062 11.1419 14.0794L18.9997 21.9372L11.3123 29.7333C9.99747 29.3463 8.61052 29.2709 7.26149 29.5133C5.91246 29.7557 4.63847 30.309 3.54057 31.1295C2.44266 31.95 1.55106 33.0151 0.936485 34.2402C0.32191 35.4653 0.00126959 36.8168 0 38.1874C0.00176092 39.4504 0.274961 40.6982 0.80109 41.8463C1.32722 42.9945 2.09398 44.0161 3.04944 44.842C4.00489 45.668 5.1267 46.2789 6.33888 46.6334C7.55105 46.9879 8.82526 47.0777 10.0752 46.8967C11.3251 46.7158 12.5215 46.2682 13.5834 45.5845C14.6452 44.9008 15.5477 43.9968 16.2297 42.9338C16.9117 41.8708 17.3572 40.6737 17.5361 39.4235C17.715 38.1733 17.6231 36.8992 17.2666 35.6876L25.0627 28.0002L27.9062 30.8437L27.0103 33.5286C26.8382 34.0461 26.8135 34.6013 26.939 35.132C27.0646 35.6628 27.3354 36.1481 27.7212 36.5336L37.3268 46.1392C37.599 46.413 37.9226 46.6302 38.279 46.7784C38.6354 46.9267 39.0176 47.003 39.4036 47.003C39.7896 47.003 40.1718 46.9267 40.5283 46.7784C40.8847 46.6302 41.2083 46.413 41.4804 46.1392L46.1393 41.4804C46.413 41.2082 46.6303 40.8846 46.7785 40.5282C46.9267 40.1718 47.003 39.7896 47.003 39.4036C47.003 39.0175 46.9267 38.6353 46.7785 38.2789C46.6303 37.9225 46.413 37.5989 46.1393 37.3267L36.5337 27.7211C36.1482 27.3353 35.6628 27.0645 35.1321 26.939C34.6014 26.8134 34.0461 26.8381 33.5286 27.0102L30.8437 27.9062L28.0237 25.0862L35.8962 17.3224C37.2022 17.671 38.5708 17.715 39.8965 17.4511C41.2222 17.1871 42.4695 16.6223 43.5424 15.8C44.6153 14.9778 45.485 13.9201 46.0844 12.7086C46.6839 11.4971 46.9971 10.1641 47 8.81244C47 8.01931 46.9001 7.2585 46.7004 6.53L40.4141 12.8192L35.25 11.7499L34.1807 6.58875L40.4699 0.299562C38.9739 -0.102695 37.3982 -0.103446 35.9017 0.297385C34.4052 0.698217 33.0409 1.48646 31.9461 2.58267C30.8514 3.67888 30.065 5.04431 29.6662 6.54132C29.2674 8.03833 29.2703 9.61402 29.6746 11.1096L21.9196 18.9762L14.0794 11.1419C13.5285 10.5911 13.2189 9.84407 13.2187 9.06506V8.8565C13.2188 8.38873 13.1071 7.92772 12.893 7.51181C12.679 7.09591 12.3687 6.73715 11.9879 6.46537L2.9375 -6.27034e-05ZM31.2726 31.2726C31.4091 31.1358 31.5711 31.0273 31.7496 30.9532C31.928 30.8792 32.1193 30.8411 32.3125 30.8411C32.5057 30.8411 32.697 30.8792 32.8754 30.9532C33.0539 31.0273 33.2159 31.1358 33.3524 31.2726L41.9122 39.8354C42.1798 40.1124 42.3278 40.4834 42.3245 40.8685C42.3211 41.2536 42.1667 41.622 41.8944 41.8943C41.622 42.1666 41.2537 42.3211 40.8686 42.3244C40.4835 42.3278 40.1124 42.1797 39.8354 41.9122L31.2726 33.3523C31.1358 33.2159 31.0273 33.0538 30.9533 32.8754C30.8792 32.6969 30.8411 32.5056 30.8411 32.3124C30.8411 32.1192 30.8792 31.9279 30.9533 31.7495C31.0273 31.5711 31.1358 31.409 31.2726 31.2726ZM8.8125 32.3124L10.1961 33.0233L11.75 33.0997L12.5931 34.4069L13.9002 35.2499L13.9766 36.8039L14.6875 38.1874L13.9766 39.571L13.9002 41.1249L12.5931 41.968L11.75 43.2752L10.1961 43.3516L8.8125 44.0624L7.42894 43.3516L5.875 43.2752L5.03194 41.968L3.72475 41.1249L3.64837 39.571L2.9375 38.1874L3.64837 36.8039L3.72475 35.2499L5.03194 34.4069L5.875 33.0997L7.42894 33.0233L8.8125 32.3124Z" fill="#F9A200"/>
</g>
<defs>
<clipPath id="clip0_2_92">
<rect width="47" height="47" fill="white"/>
</clipPath>
</defs>
</svg>
