<svg width="108" height="108" viewBox="0 0 108 108" fill="none" xmlns="http://www.w3.org/2000/svg">
<path d="M71.3829 29.4171C70.0971 26.2029 68.1964 23.6871 65.6807 21.87C63.165 20.0529 60.1371 19.14 56.5971 19.1314C54.6686 19.1314 52.6286 19.4807 50.4771 20.1793C48.3257 20.8821 46.5 22.1079 45 23.8564L40.3779 19.2279C41.9636 17.4836 43.9371 16.0779 46.2986 15.0107C48.6643 13.9393 50.9186 13.2857 53.0614 13.05V2.52H59.49V12.9793C62.9914 13.365 66.3986 14.6614 69.7114 16.8686C73.0286 19.0714 75.5979 22.4079 77.4193 26.8779L71.3829 29.4171ZM103.455 108L76.6029 81.1479C74.8286 83.6636 72.3429 85.7807 69.1457 87.4993C65.9486 89.2136 62.73 90.0964 59.49 90.1479V100.684H53.0614V89.8264C47.7214 88.8193 43.455 86.6229 40.2621 83.2371C37.0693 79.8514 34.5621 75.405 32.7407 69.8979L38.9186 67.4743C40.29 71.9743 42.48 75.8314 45.4886 79.0457C48.5014 82.26 52.5257 83.8671 57.5614 83.8671C60.6471 83.8671 63.4243 83.1943 65.8929 81.8486C68.3657 80.4986 70.3929 78.7243 71.9743 76.5257L0 4.55143L4.55143 0L108 103.449L103.455 108Z" fill="#D08801"/>
</svg>
