<svg width="40" height="41" viewBox="0 0 40 41" fill="none" xmlns="http://www.w3.org/2000/svg">
<path d="M30.0862 24.869C31.043 22.8182 31.4115 20.488 31.0565 18.2318C30.7511 16.2916 30.1124 14.7012 29.1038 13.3699C28.2589 12.2547 27.1561 11.3351 25.7325 10.5586C24.0481 9.63994 22.0858 9.18866 20.0582 9.25342C18.0176 9.31863 15.9939 9.9062 14.2061 10.9526C12.1193 12.1739 10.6193 13.7915 9.74787 15.7604C9.66617 15.945 9.59018 16.1325 9.51926 16.3227C9.43589 16.4478 9.38617 16.5919 9.37356 16.7403C8.91805 18.143 8.74119 19.7014 8.83435 21.4718C8.88599 22.4549 9.09356 23.4369 9.45128 24.3905C9.50905 24.5445 9.57088 24.6972 9.63604 24.8486C9.63784 24.8528 9.6396 24.8571 9.64146 24.8613C9.96604 25.613 10.3807 26.3317 10.8783 27.0036C11.476 27.8103 12.1793 28.5313 12.969 29.1464C13.7774 29.7763 14.6598 30.2819 15.5913 30.6493C16.8678 31.1528 18.2494 31.4083 19.662 31.4083C20.2869 31.4083 20.9179 31.3583 21.5486 31.2576C23.591 30.9315 25.4804 30.099 27.0126 28.85L27.0127 28.85C28.2936 27.8057 29.3161 26.4736 30.0288 24.9901C30.051 24.9512 30.0703 24.9107 30.0862 24.869ZM29.3059 18.5073C29.3221 18.6103 29.3365 18.7137 29.3492 18.8174C27.0689 19.8091 24.5966 20.9695 22.1515 22.1293L29.0874 17.4351C29.1743 17.7769 29.2471 18.1339 29.3059 18.5073ZM28.7752 23.4263C28.724 23.562 28.6697 23.696 28.613 23.8286C27.4029 24.2279 25.3317 25.0069 23.2025 25.8646C23.2885 25.8019 23.3742 25.7393 23.46 25.6768C25.5962 24.1192 27.79 22.5195 29.3357 21.1973C29.237 21.9507 29.0497 22.6995 28.7752 23.4263ZM28.4049 15.5849L18.9968 19.7505L27.3682 14.0439C27.481 14.1728 27.5887 14.3047 27.6913 14.4401C27.9606 14.7956 28.1979 15.1764 28.4049 15.5849ZM12.6665 26.4089C12.5406 26.2595 12.419 26.1061 12.3023 25.9487C12.0609 25.6227 11.844 25.2859 11.652 24.9406L20.8597 20.8637L12.6665 26.4089ZM11.0285 17.385C13.3004 16.0345 15.9663 14.6799 18.315 13.5543C17.796 13.9092 17.2759 14.2502 16.7853 14.5719C16.299 14.8908 15.8397 15.1919 15.4193 15.4807C14.2494 16.2845 13.1138 17.0815 12.0802 17.995C11.5261 18.4848 11.0443 18.973 10.6297 19.4654C10.6947 18.7225 10.8272 18.0315 11.0285 17.385ZM10.7215 22.374C11.9871 21.6899 13.2202 21.0039 14.4132 20.3401C15.4276 19.7758 16.4284 19.219 17.4318 18.6726L10.8973 23.127C10.8264 22.8779 10.7678 22.6267 10.7215 22.374ZM25.8 12.6721C21.7299 14.3124 18.2818 16.167 14.7504 18.1254C15.2813 17.7319 15.8423 17.3402 16.4228 16.9414C16.8274 16.6634 17.2789 16.3674 17.757 16.0539C18.8207 15.3565 20.0264 14.566 21.0927 13.7221C22.0951 12.9288 22.8471 12.1864 23.3728 11.4693C23.8997 11.6383 24.4058 11.8537 24.8839 12.1145C25.2097 12.2921 25.5146 12.4778 25.8 12.6721ZM15.1012 12.482C16.4348 11.7015 17.9195 11.2189 19.4322 11.0695C17.4491 11.9879 15.0182 13.1617 12.7044 14.4066C12.7231 14.3856 12.7415 14.3644 12.7605 14.3436C13.3931 13.6472 14.1806 13.0209 15.1012 12.482ZM14.1558 27.8232C16.5321 26.762 19.0673 25.557 21.5315 24.3857C22.187 24.0742 22.8474 23.7603 23.5084 23.4474C23.1451 23.7132 22.7796 23.9797 22.4159 24.2449C19.96 26.0357 17.6375 27.7292 16.2593 29.0076C16.2534 29.0053 16.2474 29.0031 16.2415 29.0008C15.5047 28.7101 14.8037 28.3141 14.1558 27.8232ZM18.9639 29.6085C20.0645 29.094 21.5355 28.4576 23.2304 27.766C23.3018 27.7368 23.3734 27.7076 23.4448 27.6786C22.7172 28.2627 21.9885 28.8782 21.3113 29.4989C20.5346 29.626 19.7441 29.6638 18.9639 29.6085Z" fill="#F9B800"/>
<path d="M20 7.42509C20.4894 7.42509 20.8861 7.0284 20.8861 6.53902V0.886073C20.8861 0.396695 20.4894 0 20 0C19.5107 0 19.114 0.396695 19.114 0.886073V6.53902C19.114 7.0284 19.5107 7.42509 20 7.42509Z" fill="#F9B800"/>
<path d="M13.9719 7.98983C14.1133 8.33106 14.4432 8.53704 14.7909 8.53704C14.9039 8.53704 15.0187 8.51528 15.1296 8.46936C15.5817 8.28208 15.7964 7.76376 15.6092 7.31165L14.5728 4.80956C14.3855 4.35747 13.8673 4.14274 13.4151 4.33002C12.963 4.5173 12.7482 5.03561 12.9355 5.48773L13.9719 7.98983Z" fill="#F9B800"/>
<path d="M9.77651 11.2979C9.94952 11.471 10.1763 11.5575 10.4031 11.5575C10.6298 11.5575 10.8566 11.4709 11.0296 11.2979C11.3756 10.9519 11.3756 10.3909 11.0296 10.0449L7.03236 6.04759C6.68634 5.70157 6.12529 5.70159 5.77929 6.04759C5.43325 6.39361 5.43325 6.95466 5.77929 7.30068L9.77651 11.2979Z" fill="#F9B800"/>
<path d="M4.05521 14.671L7.16642 15.9597C7.27733 16.0057 7.39213 16.0274 7.50516 16.0274C7.85284 16.0274 8.1828 15.8214 8.32411 15.4802C8.51139 15.0281 8.29668 14.5098 7.84456 14.3225L4.73337 13.0338C4.28132 12.8466 3.76296 13.0612 3.57566 13.5133C3.38841 13.9654 3.60312 14.4838 4.05521 14.671Z" fill="#F9B800"/>
<path d="M7.42509 20.3795C7.42509 19.8901 7.02837 19.4934 6.53902 19.4934H0.886073C0.396695 19.4934 0 19.8901 0 20.3795C0 20.8688 0.396695 21.2656 0.886073 21.2656H6.53902C7.02837 21.2656 7.42509 20.8688 7.42509 20.3795Z" fill="#F9B800"/>
<path d="M24.8704 8.46935C24.9813 8.5153 25.0961 8.53704 25.2091 8.53704C25.5568 8.53704 25.8868 8.33104 26.0281 7.98983L27.0645 5.48775C27.2517 5.03563 27.037 4.51732 26.5849 4.33004C26.1328 4.14279 25.6145 4.35747 25.4272 4.80958L24.3908 7.31167C24.2036 7.76376 24.4183 8.28208 24.8704 8.46935Z" fill="#F9B800"/>
<path d="M29.597 11.5575C29.8237 11.5575 30.0505 11.4709 30.2235 11.2979L34.2207 7.30068C34.5668 6.95466 34.5668 6.39361 34.2207 6.04759C33.8747 5.70157 33.3137 5.70157 32.9677 6.04759L28.9704 10.0448C28.6244 10.3909 28.6244 10.9519 28.9704 11.2979C29.1434 11.471 29.3702 11.5575 29.597 11.5575Z" fill="#F9B800"/>
<path d="M31.6759 15.4802C31.8172 15.8214 32.1471 16.0274 32.4948 16.0274C32.6078 16.0274 32.7227 16.0057 32.8336 15.9597L35.9448 14.671C36.3969 14.4838 36.6116 13.9654 36.4243 13.5133C36.2371 13.0612 35.7187 12.8465 35.2666 13.0338L32.1554 14.3225C31.7033 14.5098 31.4886 15.0281 31.6759 15.4802Z" fill="#F9B800"/>
<path d="M39.1139 19.4934H33.461C32.9716 19.4934 32.5749 19.8901 32.5749 20.3795C32.5749 20.8688 32.9716 21.2656 33.461 21.2656H39.1139C39.6033 21.2656 40 20.8688 40 20.3795C40 19.8901 39.6033 19.4934 39.1139 19.4934Z" fill="#F9B800"/>
<path d="M20 33.3338C19.5107 33.3338 19.114 33.7306 19.114 34.2199V39.8729C19.114 40.3622 19.5107 40.7589 20 40.7589C20.4894 40.7589 20.8861 40.3622 20.8861 39.8729V34.2199C20.8861 33.7306 20.4894 33.3338 20 33.3338Z" fill="#F9B800"/>
<path d="M15.1296 32.2896C14.6775 32.1023 14.1592 32.317 13.9719 32.7691L12.9355 35.2712C12.7482 35.7233 12.963 36.2416 13.4151 36.4289C13.526 36.4748 13.6408 36.4966 13.7538 36.4966C14.1015 36.4966 14.4314 36.2906 14.5728 35.9494L15.6092 33.4473C15.7964 32.9952 15.5817 32.4769 15.1296 32.2896Z" fill="#F9B800"/>
<path d="M9.77651 29.461L5.77929 33.4583C5.43325 33.8043 5.43325 34.3653 5.77929 34.7113C5.95231 34.8844 6.17907 34.9709 6.40584 34.9709C6.63261 34.9709 6.85937 34.8844 7.03238 34.7113L11.0296 30.7141C11.3757 30.3681 11.3757 29.807 11.0296 29.461C10.6836 29.115 10.1225 29.115 9.77651 29.461Z" fill="#F9B800"/>
<path d="M8.32413 25.2787C8.13687 24.8266 7.61862 24.6119 7.16644 24.7992L4.05523 26.0879C3.60311 26.2751 3.38843 26.7935 3.57568 27.2456C3.71704 27.5868 4.04695 27.7928 4.39466 27.7928C4.50764 27.7928 4.62251 27.771 4.73339 27.7251L7.84458 26.4364C8.2967 26.2492 8.5114 25.7309 8.32413 25.2787Z" fill="#F9B800"/>
<path d="M26.0281 32.7691C25.8408 32.317 25.3226 32.1023 24.8704 32.2896C24.4183 32.4768 24.2036 32.9951 24.3908 33.4473L25.4272 35.9493C25.5686 36.2906 25.8985 36.4965 26.2462 36.4965C26.3592 36.4965 26.474 36.4748 26.5849 36.4289C27.037 36.2416 27.2518 35.7233 27.0645 35.2712L26.0281 32.7691Z" fill="#F9B800"/>
<path d="M30.2235 29.461C29.8775 29.1149 29.3164 29.115 28.9704 29.461C28.6244 29.807 28.6244 30.3681 28.9704 30.7141L32.9677 34.7113C33.1407 34.8844 33.3674 34.9708 33.5942 34.9708C33.821 34.9708 34.0478 34.8843 34.2208 34.7113C34.5668 34.3653 34.5668 33.8043 34.2208 33.4583L30.2235 29.461Z" fill="#F9B800"/>
<path d="M35.9448 26.0879L32.8336 24.7992C32.3815 24.612 31.8631 24.8267 31.6759 25.2788C31.4886 25.7309 31.7033 26.2492 32.1554 26.4365L35.2666 27.7251C35.3776 27.7711 35.4924 27.7928 35.6054 27.7928C35.9531 27.7928 36.283 27.5868 36.4243 27.2456C36.6116 26.7935 36.3969 26.2752 35.9448 26.0879Z" fill="#F9B800"/>
</svg>
